# xmcd
#
# Track frame offsets:
#	150
#	13054
#	30480
#	45015
#	59786
#	82583
#	97326
#	109611
#	122272
#	133421
#
# Disc length: 2114 seconds
#
# Revision: 0
# Processed by: cddbd v1.5.2PL0 Copyright (c) Steve Scherf et al.
# Submitted via: audiograbber 1.83.01
#
DISCID=7808400a
DTITLE=McGuffy Lane - McGuffy Lane
DYEAR=1980
DGENRE=Country
TTITLE0=People Like You
TTITLE1=Long Time Loving You
TTITLE2=Aint No One (To Love You Like I Do)
TTITLE3=Rodeo
TTITLE4=Green Country Mountains
TTITLE5=Stagecoach
TTITLE6=Music Man
TTITLE7=Break Away
TTITLE8=Lady Autumn
TTITLE9=Stay In Love With You
EXTD=
EXTT0=
EXTT1=
EXTT2=
EXTT3=
EXTT4=
EXTT5=
EXTT6=
EXTT7=
EXTT8=
EXTT9=
PLAYORDER=
